<svg width="64" height="64" viewBox="0 0 64 64" fill="none" xmlns="http://www.w3.org/2000/svg">
  <rect width="64" height="64" rx="14" fill="#1e1e3f"/>
  <path d="M18 18 L18 28 Q18 32 22 32 L26 32 L26 46 Q26 50 22 50 L18 50 L18 58 L34 58 Q44 58 50 46 Q56 34 50 22 Q44 10 34 10 Z" fill="#f5a623"/>
  <path d="M30 18 L30 28 Q30 32 34 32 L38 32 L38 46 Q38 50 34 50 L30 50 L30 58 L38 58 Q52 58 56 44 Q60 30 56 22 Q52 14 38 14 Z" fill="#f7b731" opacity="0.8"/>
  <circle cx="50" cy="16" r="4" fill="#f5a623"/>
</svg>
